<svg width="512" height="512" viewBox="0 0 512 512" fill="none" xmlns="http://www.w3.org/2000/svg">
<g clip-path="url(#clip0_669_6)">
<rect width="512" height="512" rx="120" fill="white"/>
<rect x="-0.0522461" y="-0.0523071" width="512" height="512" rx="120" fill="#111827"/>
<g filter="url(#filter0_d_669_6)">
<circle cx="255.948" cy="255.948" r="10" fill="#111827"/>
</g>
<path d="M256.448 336.448C242.114 336.448 229.448 333.614 218.448 327.948C207.614 322.281 198.281 313.781 190.448 302.448L208.948 281.198C217.114 292.864 224.948 300.948 232.448 305.448C239.948 309.948 248.864 312.198 259.198 312.198C265.531 312.198 271.281 311.198 276.448 309.198C281.614 307.198 285.698 304.448 288.698 300.948C291.698 297.448 293.198 293.448 293.198 288.948C293.198 285.948 292.698 283.114 291.698 280.448C290.698 277.781 289.114 275.364 286.948 273.198C284.948 271.031 282.281 269.031 278.948 267.198C275.781 265.364 272.031 263.781 267.698 262.448C263.364 260.948 258.364 259.698 252.698 258.698C240.698 256.364 230.698 252.864 222.698 248.198C214.864 243.531 208.948 237.614 204.948 230.448C201.114 223.281 199.198 214.948 199.198 205.448C199.198 198.448 200.698 191.948 203.698 185.948C206.864 179.948 211.114 174.781 216.448 170.448C221.948 165.948 228.364 162.531 235.698 160.198C243.031 157.698 250.948 156.448 259.448 156.448C272.948 156.448 284.698 159.114 294.698 164.448C304.864 169.614 312.864 177.198 318.698 187.198L299.698 205.948C294.698 197.781 288.698 191.531 281.698 187.198C274.864 182.864 267.198 180.698 258.698 180.698C252.198 180.698 246.531 181.698 241.698 183.698C236.864 185.698 233.031 188.531 230.198 192.198C227.531 195.698 226.198 199.864 226.198 204.698C226.198 208.198 226.864 211.448 228.198 214.448C229.531 217.281 231.531 219.864 234.198 222.198C237.031 224.364 240.781 226.364 245.448 228.198C250.114 229.864 255.698 231.364 262.198 232.698C271.364 234.698 279.531 237.281 286.698 240.448C293.864 243.448 299.948 247.031 304.948 251.198C309.948 255.364 313.698 260.031 316.198 265.198C318.864 270.364 320.198 275.948 320.198 281.948C320.198 293.114 317.614 302.781 312.448 310.948C307.281 319.114 299.948 325.448 290.448 329.948C280.948 334.281 269.614 336.448 256.448 336.448ZM241.448 356.698V243.198L265.698 251.448V356.698H241.448ZM275.698 251.448L251.448 243.198V138.448H275.698V251.448Z" fill="#3682FF"/>
<mask id="path-5-inside-1_669_6" fill="white">
<path d="M447.948 255.948C457.889 255.948 466.028 264.021 465.177 273.926C462.471 305.413 452.685 335.965 436.457 363.263C417.154 395.731 389.451 422.392 356.266 440.437C323.082 458.481 285.645 467.241 247.9 465.793C216.166 464.576 185.202 456.182 157.303 441.337C148.527 436.667 146.174 425.447 151.578 417.103L166.255 394.44C171.659 386.096 182.767 383.824 191.709 388.169C209.959 397.035 229.909 402.057 250.314 402.84C276.736 403.853 302.942 397.721 326.171 385.09C349.4 372.459 368.792 353.796 382.304 331.068C392.739 313.516 399.369 294.041 401.847 273.903C403.061 264.036 411.007 255.948 420.948 255.948H447.948Z"/>
</mask>
<path d="M447.948 255.948C457.889 255.948 466.028 264.021 465.177 273.926C462.471 305.413 452.685 335.965 436.457 363.263C417.154 395.731 389.451 422.392 356.266 440.437C323.082 458.481 285.645 467.241 247.9 465.793C216.166 464.576 185.202 456.182 157.303 441.337C148.527 436.667 146.174 425.447 151.578 417.103L166.255 394.44C171.659 386.096 182.767 383.824 191.709 388.169C209.959 397.035 229.909 402.057 250.314 402.84C276.736 403.853 302.942 397.721 326.171 385.09C349.4 372.459 368.792 353.796 382.304 331.068C392.739 313.516 399.369 294.041 401.847 273.903C403.061 264.036 411.007 255.948 420.948 255.948H447.948Z" stroke="#0061FF" stroke-width="152" mask="url(#path-5-inside-1_669_6)"/>
<mask id="path-6-inside-2_669_6" fill="white">
<path d="M120.522 392.066C113.511 399.114 102.046 399.189 95.6252 391.6C74.0143 366.059 58.7595 335.651 51.2454 302.871C42.387 264.226 44.6486 223.863 57.7689 186.45C70.8891 149.036 94.3318 116.101 125.386 91.4531C151.728 70.5455 182.633 56.325 215.462 49.8754C225.217 47.959 234.123 55.1778 235.197 65.0607L238.116 91.906C239.19 101.789 232.007 110.562 222.33 112.835C201.318 117.771 181.575 127.292 164.555 140.802C142.817 158.055 126.407 181.11 117.223 207.299C108.038 233.488 106.455 261.743 112.656 288.794C117.511 309.975 126.984 329.741 140.31 346.719C146.449 354.539 146.579 365.876 139.568 372.923L120.522 392.066Z"/>
</mask>
<path d="M120.522 392.066C113.511 399.114 102.046 399.189 95.6252 391.6C74.0143 366.059 58.7595 335.651 51.2454 302.871C42.387 264.226 44.6486 223.863 57.7689 186.45C70.8891 149.036 94.3318 116.101 125.386 91.4531C151.728 70.5455 182.633 56.325 215.462 49.8754C225.217 47.959 234.123 55.1778 235.197 65.0607L238.116 91.906C239.19 101.789 232.007 110.562 222.33 112.835C201.318 117.771 181.575 127.292 164.555 140.802C142.817 158.055 126.407 181.11 117.223 207.299C108.038 233.488 106.455 261.743 112.656 288.794C117.511 309.975 126.984 329.741 140.31 346.719C146.449 354.539 146.579 365.876 139.568 372.923L120.522 392.066Z" stroke="#3682FF" stroke-width="152" mask="url(#path-6-inside-2_669_6)"/>
<mask id="path-7-inside-3_669_6" fill="white">
<path d="M283.003 65.852C284.404 56.01 293.545 49.0899 303.23 51.328C338.74 59.5331 371.613 76.8674 398.523 101.75C425.434 126.632 445.286 158.049 456.243 192.808C459.232 202.289 453.048 211.942 443.345 214.108L416.991 219.993C407.289 222.159 397.772 215.995 394.437 206.63C386.497 184.335 373.258 164.197 355.751 148.009C338.243 131.822 317.132 120.198 294.283 114.026C284.686 111.434 277.798 102.428 279.198 92.586L283.003 65.852Z"/>
</mask>
<path d="M283.003 65.852C284.404 56.01 293.545 49.0899 303.23 51.328C338.74 59.5331 371.613 76.8674 398.523 101.75C425.434 126.632 445.286 158.049 456.243 192.808C459.232 202.289 453.048 211.942 443.345 214.108L416.991 219.993C407.289 222.159 397.772 215.995 394.437 206.63C386.497 184.335 373.258 164.197 355.751 148.009C338.243 131.822 317.132 120.198 294.283 114.026C284.686 111.434 277.798 102.428 279.198 92.586L283.003 65.852Z" stroke="#5193FF" stroke-width="152" mask="url(#path-7-inside-3_669_6)"/>
</g>
<defs>
<filter id="filter0_d_669_6" x="-79.0522" y="-79.0523" width="670" height="670" filterUnits="userSpaceOnUse" color-interpolation-filters="sRGB">
<feFlood flood-opacity="0" result="BackgroundImageFix"/>
<feColorMatrix in="SourceAlpha" type="matrix" values="0 0 0 0 0 0 0 0 0 0 0 0 0 0 0 0 0 0 127 0" result="hardAlpha"/>
<feMorphology radius="75" operator="dilate" in="SourceAlpha" result="effect1_dropShadow_669_6"/>
<feOffset/>
<feGaussianBlur stdDeviation="125"/>
<feComposite in2="hardAlpha" operator="out"/>
<feColorMatrix type="matrix" values="0 0 0 0 0.211765 0 0 0 0 0.509804 0 0 0 0 1 0 0 0 0.75 0"/>
<feBlend mode="normal" in2="BackgroundImageFix" result="effect1_dropShadow_669_6"/>
<feBlend mode="normal" in="SourceGraphic" in2="effect1_dropShadow_669_6" result="shape"/>
</filter>
<clipPath id="clip0_669_6">
<rect width="512" height="512" rx="120" fill="white"/>
</clipPath>
</defs>
</svg>
