<svg width="594" height="594" viewBox="0 0 594 594" fill="none" xmlns="http://www.w3.org/2000/svg">
<rect x="41" y="41" width="512" height="512" rx="120" fill="#F7F0FF"/>
<path d="M297.5 377.5C283.167 377.5 270.5 374.667 259.5 369C248.667 363.333 239.333 354.833 231.5 343.5L250 322.25C258.167 333.917 266 342 273.5 346.5C281 351 289.917 353.25 300.25 353.25C306.583 353.25 312.333 352.25 317.5 350.25C322.667 348.25 326.75 345.5 329.75 342C332.75 338.5 334.25 334.5 334.25 330C334.25 327 333.75 324.167 332.75 321.5C331.75 318.833 330.167 316.417 328 314.25C326 312.083 323.333 310.083 320 308.25C316.833 306.417 313.083 304.833 308.75 303.5C304.417 302 299.417 300.75 293.75 299.75C281.75 297.417 271.75 293.917 263.75 289.25C255.917 284.583 250 278.667 246 271.5C242.167 264.333 240.25 256 240.25 246.5C240.25 239.5 241.75 233 244.75 227C247.917 221 252.167 215.833 257.5 211.5C263 207 269.417 203.583 276.75 201.25C284.083 198.75 292 197.5 300.5 197.5C314 197.5 325.75 200.167 335.75 205.5C345.917 210.667 353.917 218.25 359.75 228.25L340.75 247C335.75 238.833 329.75 232.583 322.75 228.25C315.917 223.917 308.25 221.75 299.75 221.75C293.25 221.75 287.583 222.75 282.75 224.75C277.917 226.75 274.083 229.583 271.25 233.25C268.583 236.75 267.25 240.917 267.25 245.75C267.25 249.25 267.917 252.5 269.25 255.5C270.583 258.333 272.583 260.917 275.25 263.25C278.083 265.417 281.833 267.417 286.5 269.25C291.167 270.917 296.75 272.417 303.25 273.75C312.417 275.75 320.583 278.333 327.75 281.5C334.917 284.5 341 288.083 346 292.25C351 296.417 354.75 301.083 357.25 306.25C359.917 311.417 361.25 317 361.25 323C361.25 334.167 358.667 343.833 353.5 352C348.333 360.167 341 366.5 331.5 371C322 375.333 310.667 377.5 297.5 377.5ZM282.5 397.75V284.25L306.75 292.5V397.75H282.5ZM316.75 292.5L292.5 284.25V179.5H316.75V292.5Z" fill="#9736FF"/>
<mask id="path-3-inside-1_653_2" fill="white">
<path d="M489 297C498.941 297 507.08 305.074 506.229 314.978C503.524 346.465 493.738 377.018 477.509 404.315C458.206 436.784 430.503 463.445 397.319 481.489C364.134 499.533 326.697 508.293 288.952 506.846C257.218 505.629 226.254 497.234 198.355 482.389C189.579 477.72 187.226 466.499 192.63 458.155L207.307 435.493C212.711 427.149 223.82 424.877 232.761 429.221C251.011 438.088 270.961 443.109 291.366 443.892C317.788 444.905 343.994 438.773 367.223 426.142C390.452 413.511 409.844 394.849 423.356 372.121C433.791 354.568 440.421 335.094 442.899 314.955C444.114 305.089 452.059 297 462 297H489Z"/>
</mask>
<path d="M489 297C498.941 297 507.08 305.074 506.229 314.978C503.524 346.465 493.738 377.018 477.509 404.315C458.206 436.784 430.503 463.445 397.319 481.489C364.134 499.533 326.697 508.293 288.952 506.846C257.218 505.629 226.254 497.234 198.355 482.389C189.579 477.72 187.226 466.499 192.63 458.155L207.307 435.493C212.711 427.149 223.82 424.877 232.761 429.221C251.011 438.088 270.961 443.109 291.366 443.892C317.788 444.905 343.994 438.773 367.223 426.142C390.452 413.511 409.844 394.849 423.356 372.121C433.791 354.568 440.421 335.094 442.899 314.955C444.114 305.089 452.059 297 462 297H489Z" stroke="#9736FF" stroke-width="152" mask="url(#path-3-inside-1_653_2)"/>
<mask id="path-4-inside-2_653_2" fill="white">
<path d="M161.574 433.119C154.563 440.166 143.099 440.241 136.677 432.652C115.067 407.112 99.8117 376.703 92.2976 343.923C83.4392 305.278 85.7009 264.915 98.8211 227.502C111.941 190.089 135.384 157.154 166.438 132.505C192.78 111.598 223.685 97.3773 256.515 90.9277C266.269 89.0113 275.175 96.2301 276.25 106.113L279.168 132.958C280.242 142.841 273.059 151.614 263.382 153.887C242.37 158.823 222.627 168.344 205.607 181.854C183.869 199.108 167.459 222.162 158.275 248.351C149.091 274.541 147.507 302.795 153.708 329.846C158.564 351.027 168.036 370.794 181.363 387.771C187.501 395.591 187.631 406.928 180.62 413.976L161.574 433.119Z"/>
</mask>
<path d="M161.574 433.119C154.563 440.166 143.099 440.241 136.677 432.652C115.067 407.112 99.8117 376.703 92.2976 343.923C83.4392 305.278 85.7009 264.915 98.8211 227.502C111.941 190.089 135.384 157.154 166.438 132.505C192.78 111.598 223.685 97.3773 256.515 90.9277C266.269 89.0113 275.175 96.2301 276.25 106.113L279.168 132.958C280.242 142.841 273.059 151.614 263.382 153.887C242.37 158.823 222.627 168.344 205.607 181.854C183.869 199.108 167.459 222.162 158.275 248.351C149.091 274.541 147.507 302.795 153.708 329.846C158.564 351.027 168.036 370.794 181.363 387.771C187.501 395.591 187.631 406.928 180.62 413.976L161.574 433.119Z" stroke="#B876FF" stroke-width="152" mask="url(#path-4-inside-2_653_2)"/>
<mask id="path-5-inside-3_653_2" fill="white">
<path d="M324.056 106.904C325.456 97.0623 334.597 90.1421 344.283 92.3802C379.792 100.585 412.665 117.92 439.576 142.802C466.486 167.684 486.338 199.101 497.295 233.86C500.284 243.341 494.1 252.995 484.398 255.161L458.043 261.045C448.341 263.211 438.824 257.048 435.489 247.683C427.549 225.387 414.31 205.249 396.803 189.061C379.296 172.874 358.184 161.25 335.336 155.078C325.739 152.486 318.85 143.48 320.251 133.638L324.056 106.904Z"/>
</mask>
<path d="M324.056 106.904C325.456 97.0623 334.597 90.1421 344.283 92.3802C379.792 100.585 412.665 117.92 439.576 142.802C466.486 167.684 486.338 199.101 497.295 233.86C500.284 243.341 494.1 252.995 484.398 255.161L458.043 261.045C448.341 263.211 438.824 257.048 435.489 247.683C427.549 225.387 414.31 205.249 396.803 189.061C379.296 172.874 358.184 161.25 335.336 155.078C325.739 152.486 318.85 143.48 320.251 133.638L324.056 106.904Z" stroke="#CFA3FF" stroke-width="152" mask="url(#path-5-inside-3_653_2)"/>
</svg>
